<svg width="18" height="44" viewBox="0 0 18 44" fill="none" xmlns="http://www.w3.org/2000/svg">
<g filter="url(#filter0_d_3_108)">
<path d="M12.9375 33.5625C13.0938 33.8438 13.1719 34.1562 13.1719 34.5C13.1719 34.875 13.0156 35.2031 12.7031 35.4844C12.4219 35.7656 12.0938 35.9062 11.7188 35.9062C11.3438 35.9062 11.0625 35.8438 10.875 35.7188C10.7188 35.5938 10.5625 35.4219 10.4062 35.2031C8.5625 33.0156 7.1875 30.4531 6.28125 27.5156C5.40625 24.5469 4.96875 21.4531 4.96875 18.2344C4.96875 15.0156 5.40625 11.9219 6.28125 8.95312C7.15625 5.98438 8.53125 3.40625 10.4062 1.21875C10.5938 1.03125 10.7656 0.875 10.9219 0.75C11.0781 0.59375 11.3438 0.515625 11.7188 0.515625C12.0938 0.515625 12.4219 0.65625 12.7031 0.9375C13.0156 1.21875 13.1719 1.54688 13.1719 1.92188C13.1719 2.29688 13.0938 2.60938 12.9375 2.85938C9.9375 7.89062 8.4375 13.0156 8.4375 18.2344C8.4375 23.4219 9.9375 28.5312 12.9375 33.5625Z" fill="#745D5D"/>
<path d="M12.9375 33.5625L13.8117 33.0769L13.8042 33.0635L13.7964 33.0504L12.9375 33.5625ZM12.7031 35.4844L12.0342 34.7411L12.0146 34.7587L11.996 34.7773L12.7031 35.4844ZM10.875 35.7188L10.2503 36.4996L10.2842 36.5267L10.3203 36.5508L10.875 35.7188ZM10.4062 35.2031L11.22 34.6219L11.1967 34.5893L11.1709 34.5587L10.4062 35.2031ZM6.28125 27.5156L5.32197 27.7984L5.32569 27.8104L6.28125 27.5156ZM10.4062 1.21875L9.69914 0.511642L9.67199 0.538799L9.64699 0.567959L10.4062 1.21875ZM10.9219 0.75L11.5466 1.53087L11.5898 1.49627L11.629 1.45711L10.9219 0.75ZM12.7031 0.9375L11.996 1.64461L12.0146 1.6632L12.0342 1.68079L12.7031 0.9375ZM12.9375 2.85938L12.0895 2.32938L12.084 2.33825L12.0786 2.34724L12.9375 2.85938ZM12.0633 34.0481C12.1314 34.1707 12.1719 34.3142 12.1719 34.5H14.1719C14.1719 33.9983 14.0561 33.5168 13.8117 33.0769L12.0633 34.0481ZM12.1719 34.5C12.1719 34.5555 12.1643 34.6239 12.0342 34.7411L13.3721 36.2277C13.8669 35.7823 14.1719 35.1945 14.1719 34.5H12.1719ZM11.996 34.7773C11.8897 34.8836 11.8112 34.9062 11.7188 34.9062V36.9062C12.3763 36.9062 12.9541 36.6476 13.4102 36.1915L11.996 34.7773ZM11.7188 34.9062C11.5837 34.9062 11.4953 34.8947 11.4435 34.8832C11.3913 34.8716 11.3965 34.8646 11.4297 34.8867L10.3203 36.5508C10.7484 36.8362 11.2642 36.9062 11.7188 36.9062V34.9062ZM11.4997 34.9379C11.4352 34.8863 11.3398 34.7896 11.22 34.6219L9.59252 35.7844C9.78521 36.0541 10.0023 36.3012 10.2503 36.4996L11.4997 34.9379ZM11.1709 34.5587C9.41987 32.4812 8.10649 30.0398 7.23681 27.2208L5.32569 27.8104C6.2685 30.8664 7.70513 33.5501 9.64162 35.8476L11.1709 34.5587ZM7.24045 27.2329C6.39358 24.3596 5.96875 21.3613 5.96875 18.2344H3.96875C3.96875 21.545 4.41892 24.7342 5.32205 27.7983L7.24045 27.2329ZM5.96875 18.2344C5.96875 15.1075 6.39358 12.1092 7.24045 9.23584L5.32205 8.67041C4.41892 11.7346 3.96875 14.9238 3.96875 18.2344H5.96875ZM7.24045 9.23584C8.07855 6.39231 9.38907 3.94204 11.1655 1.86954L9.64699 0.567959C7.67343 2.87046 6.23395 5.57644 5.32205 8.67041L7.24045 9.23584ZM11.1134 1.92586C11.2826 1.75662 11.4266 1.62681 11.5466 1.53087L10.2972 -0.0308685C10.1046 0.123188 9.90491 0.30588 9.69914 0.511642L11.1134 1.92586ZM11.629 1.45711C11.5625 1.52358 11.5083 1.53717 11.5204 1.53358C11.5264 1.53184 11.5448 1.5271 11.5791 1.52292C11.6132 1.51876 11.6592 1.51562 11.7188 1.51562V-0.484375C11.252 -0.484375 10.6532 -0.395523 10.2148 0.0428925L11.629 1.45711ZM11.7188 1.51562C11.8112 1.51562 11.8897 1.53827 11.996 1.64461L13.4102 0.230392C12.9541 -0.225767 12.3763 -0.484375 11.7188 -0.484375V1.51562ZM12.0342 1.68079C12.1643 1.79794 12.1719 1.86641 12.1719 1.92188H14.1719C14.1719 1.22734 13.8669 0.639563 13.3721 0.194206L12.0342 1.68079ZM12.1719 1.92188C12.1719 2.1599 12.1227 2.27625 12.0895 2.32938L13.7855 3.38937C14.0648 2.9425 14.1719 2.43385 14.1719 1.92188H12.1719ZM12.0786 2.34724C8.99783 7.51393 7.4375 12.814 7.4375 18.2344H9.4375C9.4375 13.2173 10.8772 8.26732 13.7964 3.37151L12.0786 2.34724ZM7.4375 18.2344C7.4375 23.6246 8.99845 28.909 12.0786 34.0746L13.7964 33.0504C10.8765 28.1535 9.4375 23.2191 9.4375 18.2344H7.4375Z" fill="#745D5D"/>
</g>
<defs>
<filter id="filter0_d_3_108" x="0.96875" y="0.515625" width="16.2031" height="43.3906" filterUnits="userSpaceOnUse" color-interpolation-filters="sRGB">
<feFlood flood-opacity="0" result="BackgroundImageFix"/>
<feColorMatrix in="SourceAlpha" type="matrix" values="0 0 0 0 0 0 0 0 0 0 0 0 0 0 0 0 0 0 127 0" result="hardAlpha"/>
<feOffset dy="4"/>
<feGaussianBlur stdDeviation="2"/>
<feComposite in2="hardAlpha" operator="out"/>
<feColorMatrix type="matrix" values="0 0 0 0 0 0 0 0 0 0 0 0 0 0 0 0 0 0 0.25 0"/>
<feBlend mode="normal" in2="BackgroundImageFix" result="effect1_dropShadow_3_108"/>
<feBlend mode="normal" in="SourceGraphic" in2="effect1_dropShadow_3_108" result="shape"/>
</filter>
</defs>
</svg>
