<svg width="18" height="44" viewBox="0 0 18 44" fill="none" xmlns="http://www.w3.org/2000/svg">
<g filter="url(#filter0_d_3_110)">
<path d="M6.28125 35.9062C5.9375 35.9062 5.60938 35.7656 5.29688 35.4844C4.98438 35.2031 4.82812 34.875 4.82812 34.5C4.82812 34.1562 4.90625 33.8438 5.0625 33.5625C8.0625 28.5312 9.5625 23.4219 9.5625 18.2344C9.5625 13.0156 8.0625 7.89062 5.0625 2.85938C4.90625 2.60938 4.82812 2.29688 4.82812 1.92188C4.82812 1.54688 4.98438 1.21875 5.29688 0.9375C5.60938 0.65625 5.9375 0.515625 6.28125 0.515625C6.65625 0.515625 6.9375 0.578125 7.125 0.703125C7.3125 0.828125 7.48438 1 7.64062 1.21875C9.48438 3.40625 10.8438 5.98438 11.7188 8.95312C12.5938 11.9219 13.0312 15.0156 13.0312 18.2344C13.0312 21.4531 12.5938 24.5469 11.7188 27.5156C10.8438 30.4531 9.48438 33.0156 7.64062 35.2031C7.45312 35.3906 7.26562 35.5469 7.07812 35.6719C6.92188 35.8281 6.65625 35.9062 6.28125 35.9062Z" fill="#745D5D"/>
<path d="M5.0625 33.5625L4.2036 33.0504L4.19577 33.0635L4.18834 33.0769L5.0625 33.5625ZM5.0625 2.85938L5.9214 2.34724L5.91604 2.33825L5.9105 2.32938L5.0625 2.85938ZM7.64062 1.21875L6.82689 1.79999L6.85018 1.83259L6.876 1.86322L7.64062 1.21875ZM11.7188 27.5156L12.6771 27.8011L12.678 27.7983L11.7188 27.5156ZM7.64062 35.2031L8.34773 35.9102L8.37783 35.8801L8.40525 35.8476L7.64062 35.2031ZM7.07812 35.6719L6.52342 34.8398L6.44104 34.8948L6.37102 34.9648L7.07812 35.6719ZM6.28125 34.9062C6.23673 34.9062 6.1376 34.8957 5.96584 34.7411L4.62791 36.2277C5.08115 36.6356 5.63827 36.9062 6.28125 36.9062V34.9062ZM5.96584 34.7411C5.83568 34.6239 5.82812 34.5555 5.82812 34.5H3.82812C3.82812 35.1945 4.13307 35.7823 4.62791 36.2277L5.96584 34.7411ZM5.82812 34.5C5.82812 34.3142 5.86858 34.1707 5.93666 34.0481L4.18834 33.0769C3.94392 33.5168 3.82812 33.9983 3.82812 34.5H5.82812ZM5.9214 34.0746C9.00155 28.909 10.5625 23.6246 10.5625 18.2344H8.5625C8.5625 23.2191 7.12345 28.1535 4.2036 33.0504L5.9214 34.0746ZM10.5625 18.2344C10.5625 12.814 9.00217 7.51393 5.9214 2.34724L4.2036 3.37151C7.12283 8.26732 8.5625 13.2173 8.5625 18.2344H10.5625ZM5.9105 2.32938C5.8773 2.27625 5.82812 2.1599 5.82812 1.92188H3.82812C3.82812 2.43385 3.9352 2.9425 4.2145 3.38937L5.9105 2.32938ZM5.82812 1.92188C5.82812 1.86641 5.83568 1.79794 5.96584 1.68079L4.62791 0.194206C4.13307 0.639563 3.82812 1.22734 3.82812 1.92188H5.82812ZM5.96584 1.68079C6.1376 1.52621 6.23673 1.51562 6.28125 1.51562V-0.484375C5.63827 -0.484375 5.08115 -0.213705 4.62791 0.194206L5.96584 1.68079ZM6.28125 1.51562C6.41634 1.51562 6.50471 1.52718 6.55651 1.53869C6.60868 1.55028 6.60347 1.55729 6.5703 1.53518L7.6797 -0.128925C7.25155 -0.414356 6.73578 -0.484375 6.28125 -0.484375V1.51562ZM6.5703 1.53518C6.63959 1.58137 6.72781 1.66128 6.82689 1.79999L8.45436 0.637512C8.24094 0.33872 7.98541 0.0748825 7.6797 -0.128925L6.5703 1.53518ZM6.876 1.86322C8.62345 3.93647 9.92043 6.38885 10.7595 9.23584L12.678 8.67041C11.7671 5.5799 10.3453 2.87603 8.40525 0.574278L6.876 1.86322ZM10.7595 9.23584C11.6064 12.1092 12.0312 15.1075 12.0312 18.2344H14.0312C14.0312 14.9238 13.5811 11.7346 12.678 8.67041L10.7595 9.23584ZM12.0312 18.2344C12.0312 21.3613 11.6064 24.3596 10.7595 27.2329L12.678 27.7983C13.5811 24.7342 14.0312 21.545 14.0312 18.2344H12.0312ZM10.7604 27.2301C9.92176 30.0455 8.62499 32.4836 6.876 34.5587L8.40525 35.8476C10.3438 33.5477 11.7657 30.8608 12.6771 27.8011L10.7604 27.2301ZM6.93352 34.496C6.78466 34.6449 6.64754 34.7571 6.52342 34.8398L7.63283 36.5039C7.88371 36.3367 8.12159 36.1364 8.34773 35.9102L6.93352 34.496ZM6.37102 34.9648C6.43749 34.8983 6.49175 34.8847 6.47955 34.8883C6.47363 34.89 6.45518 34.8948 6.42094 34.899C6.38684 34.9031 6.34085 34.9062 6.28125 34.9062V36.9062C6.74805 36.9062 7.34682 36.8174 7.78523 36.379L6.37102 34.9648Z" fill="#745D5D"/>
</g>
<defs>
<filter id="filter0_d_3_110" x="0.828125" y="0.515625" width="16.2031" height="43.3906" filterUnits="userSpaceOnUse" color-interpolation-filters="sRGB">
<feFlood flood-opacity="0" result="BackgroundImageFix"/>
<feColorMatrix in="SourceAlpha" type="matrix" values="0 0 0 0 0 0 0 0 0 0 0 0 0 0 0 0 0 0 127 0" result="hardAlpha"/>
<feOffset dy="4"/>
<feGaussianBlur stdDeviation="2"/>
<feComposite in2="hardAlpha" operator="out"/>
<feColorMatrix type="matrix" values="0 0 0 0 0 0 0 0 0 0 0 0 0 0 0 0 0 0 0.25 0"/>
<feBlend mode="normal" in2="BackgroundImageFix" result="effect1_dropShadow_3_110"/>
<feBlend mode="normal" in="SourceGraphic" in2="effect1_dropShadow_3_110" result="shape"/>
</filter>
</defs>
</svg>
