<svg width="36" height="46" viewBox="0 0 36 46" fill="none" xmlns="http://www.w3.org/2000/svg">
<g filter="url(#filter0_d_1_52)">
<path d="M18.125 0.75C20.4167 0.75 22.4167 1.1875 24.125 2.0625C25.875 2.9375 27.3125 4.20833 28.4375 5.875C30.7708 9.08333 31.9375 13.5 31.9375 19.125C31.9375 24.7917 30.7708 29.2292 28.4375 32.4375C25.9792 35.8125 22.5208 37.5 18.0625 37.5C13.6042 37.5 10.1458 35.8125 7.6875 32.4375C5.35417 29.2292 4.1875 24.7917 4.1875 19.125C4.1875 13.5 5.35417 9.08333 7.6875 5.875C10.1458 2.45833 13.625 0.75 18.125 0.75ZM18.125 33.1875C21.125 33.1875 23.3958 31.9167 24.9375 29.375C26.5208 26.875 27.3125 23.4583 27.3125 19.125C27.3125 14.7917 26.5208 11.375 24.9375 8.875C23.3542 6.33333 21.0417 5.08333 18 5.125C15 5.125 12.7292 6.39583 11.1875 8.9375C9.64583 11.4375 8.875 14.8333 8.875 19.125C8.875 23.5 9.64583 26.9167 11.1875 29.375C12.8125 31.9167 15.125 33.1875 18.125 33.1875Z" fill="#F7F3F3"/>
</g>
<defs>
<filter id="filter0_d_1_52" x="0.1875" y="0.75" width="35.75" height="44.75" filterUnits="userSpaceOnUse" color-interpolation-filters="sRGB">
<feFlood flood-opacity="0" result="BackgroundImageFix"/>
<feColorMatrix in="SourceAlpha" type="matrix" values="0 0 0 0 0 0 0 0 0 0 0 0 0 0 0 0 0 0 127 0" result="hardAlpha"/>
<feOffset dy="4"/>
<feGaussianBlur stdDeviation="2"/>
<feComposite in2="hardAlpha" operator="out"/>
<feColorMatrix type="matrix" values="0 0 0 0 0 0 0 0 0 0 0 0 0 0 0 0 0 0 0.25 0"/>
<feBlend mode="normal" in2="BackgroundImageFix" result="effect1_dropShadow_1_52"/>
<feBlend mode="normal" in="SourceGraphic" in2="effect1_dropShadow_1_52" result="shape"/>
</filter>
</defs>
</svg>
