<svg width="30" height="44" viewBox="0 0 30 44" fill="none" xmlns="http://www.w3.org/2000/svg">
<g filter="url(#filter0_d_1_53)">
<path d="M22.875 31.625C23.5 31.625 24.0208 31.8542 24.4375 32.3125C24.8958 32.7292 25.125 33.25 25.125 33.875C25.125 34.4583 24.8958 34.9583 24.4375 35.375C24.0208 35.7917 23.5 36 22.875 36H7.0625C6.47917 36 5.95833 35.7917 5.5 35.375C5.08333 34.9583 4.875 34.4583 4.875 33.875C4.875 33.2917 5.08333 32.7708 5.5 32.3125C5.91667 31.8542 6.4375 31.625 7.0625 31.625H13.125V5.6875L7.9375 8.25C7.77083 8.33333 7.58333 8.41667 7.375 8.5C7.20833 8.54167 6.89583 8.5625 6.4375 8.5625C6.02083 8.5625 5.60417 8.375 5.1875 8C4.77083 7.58333 4.5625 6.95833 4.5625 6.125C4.5625 5.29167 5 4.66667 5.875 4.25L12.875 0.625C13.3333 0.375 13.8125 0.25 14.3125 0.25H15.375C16.0417 0.25 16.6042 0.5 17.0625 1C17.5625 1.45833 17.8125 2.02083 17.8125 2.6875V31.625H22.875Z" fill="#140C0C" fill-opacity="0.45" shape-rendering="crispEdges"/>
<path d="M22.875 31.625C23.5 31.625 24.0208 31.8542 24.4375 32.3125C24.8958 32.7292 25.125 33.25 25.125 33.875C25.125 34.4583 24.8958 34.9583 24.4375 35.375C24.0208 35.7917 23.5 36 22.875 36H7.0625C6.47917 36 5.95833 35.7917 5.5 35.375C5.08333 34.9583 4.875 34.4583 4.875 33.875C4.875 33.2917 5.08333 32.7708 5.5 32.3125C5.91667 31.8542 6.4375 31.625 7.0625 31.625H13.125V5.6875L7.9375 8.25C7.77083 8.33333 7.58333 8.41667 7.375 8.5C7.20833 8.54167 6.89583 8.5625 6.4375 8.5625C6.02083 8.5625 5.60417 8.375 5.1875 8C4.77083 7.58333 4.5625 6.95833 4.5625 6.125C4.5625 5.29167 5 4.66667 5.875 4.25L12.875 0.625C13.3333 0.375 13.8125 0.25 14.3125 0.25H15.375C16.0417 0.25 16.6042 0.5 17.0625 1C17.5625 1.45833 17.8125 2.02083 17.8125 2.6875V31.625H22.875Z" fill="#140C0C" fill-opacity="0.45" shape-rendering="crispEdges"/>
</g>
<defs>
<filter id="filter0_d_1_53" x="0.5625" y="0.25" width="28.5625" height="43.75" filterUnits="userSpaceOnUse" color-interpolation-filters="sRGB">
<feFlood flood-opacity="0" result="BackgroundImageFix"/>
<feColorMatrix in="SourceAlpha" type="matrix" values="0 0 0 0 0 0 0 0 0 0 0 0 0 0 0 0 0 0 127 0" result="hardAlpha"/>
<feOffset dy="4"/>
<feGaussianBlur stdDeviation="2"/>
<feComposite in2="hardAlpha" operator="out"/>
<feColorMatrix type="matrix" values="0 0 0 0 0 0 0 0 0 0 0 0 0 0 0 0 0 0 0.25 0"/>
<feBlend mode="normal" in2="BackgroundImageFix" result="effect1_dropShadow_1_53"/>
<feBlend mode="normal" in="SourceGraphic" in2="effect1_dropShadow_1_53" result="shape"/>
</filter>
</defs>
</svg>
