<svg width="34" height="45" viewBox="0 0 34 45" fill="none" xmlns="http://www.w3.org/2000/svg">
<g filter="url(#filter0_d_1_54)">
<path d="M26.8125 32.625C27.4375 32.625 27.9583 32.8542 28.375 33.3125C28.7917 33.7292 29 34.25 29 34.875C29 35.4583 28.7917 35.9583 28.375 36.375C27.9583 36.7917 27.4375 37 26.8125 37H7.0625C6.27083 37 5.625 36.75 5.125 36.25C4.625 35.75 4.375 35.125 4.375 34.375C4.375 32.5833 4.875 30.9583 5.875 29.5C6.875 28.0417 8.125 26.7083 9.625 25.5C11.125 24.25 12.7708 23.0833 14.5625 22C16.3542 20.9167 18 19.8333 19.5 18.75C21.0417 17.6667 22.3125 16.5417 23.3125 15.375C24.3125 14.2083 24.8125 13.0417 24.8125 11.875C24.8125 10.7083 24.6667 9.75 24.375 9C24.0833 8.20833 23.625 7.54167 23 7C21.625 5.75 19.5208 5.125 16.6875 5.125C13.6458 5.125 10.7292 5.75 7.9375 7C7.60417 7.16667 7.20833 7.25 6.75 7.25C6.33333 7.25 5.9375 7.0625 5.5625 6.6875C5.22917 6.3125 5.0625 5.77083 5.0625 5.0625C5.0625 4.35417 5.41667 3.79167 6.125 3.375C9.58333 1.625 13.3958 0.75 17.5625 0.75C20.8958 0.75 23.6667 1.70833 25.875 3.625C28.1667 5.54167 29.3125 8.04167 29.3125 11.125C29.3125 14.2083 27.75 17.2083 24.625 20.125C23.25 21.375 21.75 22.5417 20.125 23.625C18.5417 24.6667 17 25.7083 15.5 26.75C14 27.75 12.6458 28.7292 11.4375 29.6875C10.2292 30.6458 9.41667 31.625 9 32.625H26.8125Z" fill="#140C0C" fill-opacity="0.45" shape-rendering="crispEdges"/>
<path d="M26.8125 32.625C27.4375 32.625 27.9583 32.8542 28.375 33.3125C28.7917 33.7292 29 34.25 29 34.875C29 35.4583 28.7917 35.9583 28.375 36.375C27.9583 36.7917 27.4375 37 26.8125 37H7.0625C6.27083 37 5.625 36.75 5.125 36.25C4.625 35.75 4.375 35.125 4.375 34.375C4.375 32.5833 4.875 30.9583 5.875 29.5C6.875 28.0417 8.125 26.7083 9.625 25.5C11.125 24.25 12.7708 23.0833 14.5625 22C16.3542 20.9167 18 19.8333 19.5 18.75C21.0417 17.6667 22.3125 16.5417 23.3125 15.375C24.3125 14.2083 24.8125 13.0417 24.8125 11.875C24.8125 10.7083 24.6667 9.75 24.375 9C24.0833 8.20833 23.625 7.54167 23 7C21.625 5.75 19.5208 5.125 16.6875 5.125C13.6458 5.125 10.7292 5.75 7.9375 7C7.60417 7.16667 7.20833 7.25 6.75 7.25C6.33333 7.25 5.9375 7.0625 5.5625 6.6875C5.22917 6.3125 5.0625 5.77083 5.0625 5.0625C5.0625 4.35417 5.41667 3.79167 6.125 3.375C9.58333 1.625 13.3958 0.75 17.5625 0.75C20.8958 0.75 23.6667 1.70833 25.875 3.625C28.1667 5.54167 29.3125 8.04167 29.3125 11.125C29.3125 14.2083 27.75 17.2083 24.625 20.125C23.25 21.375 21.75 22.5417 20.125 23.625C18.5417 24.6667 17 25.7083 15.5 26.75C14 27.75 12.6458 28.7292 11.4375 29.6875C10.2292 30.6458 9.41667 31.625 9 32.625H26.8125Z" fill="#140C0C" fill-opacity="0.45" shape-rendering="crispEdges"/>
</g>
<defs>
<filter id="filter0_d_1_54" x="0.375" y="0.75" width="32.9375" height="44.25" filterUnits="userSpaceOnUse" color-interpolation-filters="sRGB">
<feFlood flood-opacity="0" result="BackgroundImageFix"/>
<feColorMatrix in="SourceAlpha" type="matrix" values="0 0 0 0 0 0 0 0 0 0 0 0 0 0 0 0 0 0 127 0" result="hardAlpha"/>
<feOffset dy="4"/>
<feGaussianBlur stdDeviation="2"/>
<feComposite in2="hardAlpha" operator="out"/>
<feColorMatrix type="matrix" values="0 0 0 0 0 0 0 0 0 0 0 0 0 0 0 0 0 0 0.25 0"/>
<feBlend mode="normal" in2="BackgroundImageFix" result="effect1_dropShadow_1_54"/>
<feBlend mode="normal" in="SourceGraphic" in2="effect1_dropShadow_1_54" result="shape"/>
</filter>
</defs>
</svg>
