<svg width="34" height="46" viewBox="0 0 34 46" fill="none" xmlns="http://www.w3.org/2000/svg">
<g filter="url(#filter0_d_1_55)">
<path d="M28.0625 9.9375C28.0625 14.0625 26 16.9167 21.875 18.5C25.125 19.2917 27.3542 21 28.5625 23.625C29.0625 24.7083 29.3125 26.0625 29.3125 27.6875C29.3125 29.3125 28.9583 30.7292 28.25 31.9375C27.5833 33.1458 26.6458 34.1667 25.4375 35C23.0208 36.6667 19.8958 37.5 16.0625 37.5C12.3125 37.5 8.75 36.8125 5.375 35.4375C4.45833 35.0208 4 34.375 4 33.5C4 32.9583 4.1875 32.4792 4.5625 32.0625C4.9375 31.6042 5.35417 31.375 5.8125 31.375C6.3125 31.375 6.89583 31.5208 7.5625 31.8125C9.64583 32.6875 12.1875 33.1042 15.1875 33.0625C19.4375 33.0625 22.3333 32.0833 23.875 30.125C24.4167 29.375 24.6667 28.4583 24.625 27.375C24.625 23.0833 20.875 20.9167 13.375 20.875H12.5C11.9167 20.875 11.4167 20.6667 11 20.25C10.5833 19.8333 10.375 19.3333 10.375 18.75C10.375 18.1667 10.5833 17.6667 11 17.25C11.4167 16.8333 11.9167 16.625 12.5 16.625H12.875C19.9167 16.625 23.4167 14.5625 23.375 10.4375C23.375 8.85417 22.7083 7.58333 21.375 6.625C20.0833 5.625 18.0625 5.125 15.3125 5.125C12.5208 5.125 9.875 5.6875 7.375 6.8125C7.125 6.9375 6.77083 7 6.3125 7C5.85417 7 5.4375 6.83333 5.0625 6.5C4.72917 6.125 4.5625 5.60417 4.5625 4.9375C4.5625 4.22917 4.89583 3.70833 5.5625 3.375C8.77083 1.625 12.25 0.75 16 0.75C19.75 0.75 22.6875 1.5625 24.8125 3.1875C26.9792 4.77083 28.0625 7.02083 28.0625 9.9375Z" fill="#140C0C" fill-opacity="0.45" shape-rendering="crispEdges"/>
<path d="M28.0625 9.9375C28.0625 14.0625 26 16.9167 21.875 18.5C25.125 19.2917 27.3542 21 28.5625 23.625C29.0625 24.7083 29.3125 26.0625 29.3125 27.6875C29.3125 29.3125 28.9583 30.7292 28.25 31.9375C27.5833 33.1458 26.6458 34.1667 25.4375 35C23.0208 36.6667 19.8958 37.5 16.0625 37.5C12.3125 37.5 8.75 36.8125 5.375 35.4375C4.45833 35.0208 4 34.375 4 33.5C4 32.9583 4.1875 32.4792 4.5625 32.0625C4.9375 31.6042 5.35417 31.375 5.8125 31.375C6.3125 31.375 6.89583 31.5208 7.5625 31.8125C9.64583 32.6875 12.1875 33.1042 15.1875 33.0625C19.4375 33.0625 22.3333 32.0833 23.875 30.125C24.4167 29.375 24.6667 28.4583 24.625 27.375C24.625 23.0833 20.875 20.9167 13.375 20.875H12.5C11.9167 20.875 11.4167 20.6667 11 20.25C10.5833 19.8333 10.375 19.3333 10.375 18.75C10.375 18.1667 10.5833 17.6667 11 17.25C11.4167 16.8333 11.9167 16.625 12.5 16.625H12.875C19.9167 16.625 23.4167 14.5625 23.375 10.4375C23.375 8.85417 22.7083 7.58333 21.375 6.625C20.0833 5.625 18.0625 5.125 15.3125 5.125C12.5208 5.125 9.875 5.6875 7.375 6.8125C7.125 6.9375 6.77083 7 6.3125 7C5.85417 7 5.4375 6.83333 5.0625 6.5C4.72917 6.125 4.5625 5.60417 4.5625 4.9375C4.5625 4.22917 4.89583 3.70833 5.5625 3.375C8.77083 1.625 12.25 0.75 16 0.75C19.75 0.75 22.6875 1.5625 24.8125 3.1875C26.9792 4.77083 28.0625 7.02083 28.0625 9.9375Z" fill="#140C0C" fill-opacity="0.45" shape-rendering="crispEdges"/>
</g>
<defs>
<filter id="filter0_d_1_55" x="0" y="0.75" width="33.3125" height="44.75" filterUnits="userSpaceOnUse" color-interpolation-filters="sRGB">
<feFlood flood-opacity="0" result="BackgroundImageFix"/>
<feColorMatrix in="SourceAlpha" type="matrix" values="0 0 0 0 0 0 0 0 0 0 0 0 0 0 0 0 0 0 127 0" result="hardAlpha"/>
<feOffset dy="4"/>
<feGaussianBlur stdDeviation="2"/>
<feComposite in2="hardAlpha" operator="out"/>
<feColorMatrix type="matrix" values="0 0 0 0 0 0 0 0 0 0 0 0 0 0 0 0 0 0 0.25 0"/>
<feBlend mode="normal" in2="BackgroundImageFix" result="effect1_dropShadow_1_55"/>
<feBlend mode="normal" in="SourceGraphic" in2="effect1_dropShadow_1_55" result="shape"/>
</filter>
</defs>
</svg>
