<svg width="38" height="45" viewBox="0 0 38 45" fill="none" xmlns="http://www.w3.org/2000/svg">
<g filter="url(#filter0_d_1_56)">
<path d="M31.375 22.875C31.9583 22.875 32.4583 23.0833 32.875 23.5C33.2917 23.875 33.5 24.3542 33.5 24.9375C33.5 25.5208 33.2917 26.0208 32.875 26.4375C32.5 26.8125 32 27 31.375 27H27.5V33.9375C27.5 34.5625 27.2708 35.1042 26.8125 35.5625C26.3542 36.0208 25.7917 36.25 25.125 36.25C24.5 36.25 23.9583 36.0208 23.5 35.5625C23.0833 35.1042 22.875 34.5625 22.875 33.9375V27H7.25C6.41667 27 5.70833 26.7292 5.125 26.1875C4.58333 25.6042 4.3125 24.8958 4.3125 24.0625V23.625C4.3125 22.875 4.5 22.25 4.875 21.75L20.9375 1.25C21.5208 0.416667 22.3958 0 23.5625 0H24.5625C25.4792 0 26.1875 0.291667 26.6875 0.875C27.2292 1.45833 27.5 2.16667 27.5 3V22.875H31.375ZM22.875 22.875V5.3125L9.25 22.875H22.875Z" fill="#140C0C" fill-opacity="0.45" shape-rendering="crispEdges"/>
<path d="M31.375 22.875C31.9583 22.875 32.4583 23.0833 32.875 23.5C33.2917 23.875 33.5 24.3542 33.5 24.9375C33.5 25.5208 33.2917 26.0208 32.875 26.4375C32.5 26.8125 32 27 31.375 27H27.5V33.9375C27.5 34.5625 27.2708 35.1042 26.8125 35.5625C26.3542 36.0208 25.7917 36.25 25.125 36.25C24.5 36.25 23.9583 36.0208 23.5 35.5625C23.0833 35.1042 22.875 34.5625 22.875 33.9375V27H7.25C6.41667 27 5.70833 26.7292 5.125 26.1875C4.58333 25.6042 4.3125 24.8958 4.3125 24.0625V23.625C4.3125 22.875 4.5 22.25 4.875 21.75L20.9375 1.25C21.5208 0.416667 22.3958 0 23.5625 0H24.5625C25.4792 0 26.1875 0.291667 26.6875 0.875C27.2292 1.45833 27.5 2.16667 27.5 3V22.875H31.375ZM22.875 22.875V5.3125L9.25 22.875H22.875Z" fill="#140C0C" fill-opacity="0.45" shape-rendering="crispEdges"/>
</g>
<defs>
<filter id="filter0_d_1_56" x="0.3125" y="0" width="37.1875" height="44.25" filterUnits="userSpaceOnUse" color-interpolation-filters="sRGB">
<feFlood flood-opacity="0" result="BackgroundImageFix"/>
<feColorMatrix in="SourceAlpha" type="matrix" values="0 0 0 0 0 0 0 0 0 0 0 0 0 0 0 0 0 0 127 0" result="hardAlpha"/>
<feOffset dy="4"/>
<feGaussianBlur stdDeviation="2"/>
<feComposite in2="hardAlpha" operator="out"/>
<feColorMatrix type="matrix" values="0 0 0 0 0 0 0 0 0 0 0 0 0 0 0 0 0 0 0.25 0"/>
<feBlend mode="normal" in2="BackgroundImageFix" result="effect1_dropShadow_1_56"/>
<feBlend mode="normal" in="SourceGraphic" in2="effect1_dropShadow_1_56" result="shape"/>
</filter>
</defs>
</svg>
