<svg width="35" height="45" viewBox="0 0 35 45" fill="none" xmlns="http://www.w3.org/2000/svg">
<g filter="url(#filter0_d_1_57)">
<path d="M9.625 15.4375C12.2083 14.0208 15.1042 13.3333 18.3125 13.375C22.1042 13.375 25.0625 14.4583 27.1875 16.625C29.1875 18.7083 30.2083 21.4792 30.25 24.9375C30.25 30.3542 27.6667 33.9167 22.5 35.625C20.75 36.2083 18.6667 36.5 16.25 36.5C12.0833 36.5 8.4375 35.5208 5.3125 33.5625C4.64583 33.1458 4.3125 32.6042 4.3125 31.9375C4.3125 31.2292 4.47917 30.6458 4.8125 30.1875C5.1875 29.7292 5.625 29.5 6.125 29.5C6.625 29.5 7.22917 29.6875 7.9375 30.0625C10.3125 31.3125 12.875 31.9167 15.625 31.875C20.5 31.875 23.5833 30.625 24.875 28.125C25.3333 27.2083 25.5833 26.0625 25.625 24.6875C25.625 22.6042 24.9167 20.9375 23.5 19.6875C22.0833 18.4375 20.3125 17.8125 18.1875 17.8125C15.0208 17.8125 12.2083 18.5625 9.75 20.0625C9 20.4792 8.27083 20.6875 7.5625 20.6875C6.89583 20.6458 6.22917 20.375 5.5625 19.875C4.9375 19.3333 4.625 18.5833 4.625 17.625C4.625 17.1667 4.64583 16.7708 4.6875 16.4375L7 2.8125C7.08333 2.02083 7.375 1.39583 7.875 0.9375C8.375 0.479167 8.97917 0.25 9.6875 0.25H26.125C26.7083 0.25 27.2292 0.479167 27.6875 0.9375C28.1458 1.35417 28.375 1.85417 28.375 2.4375C28.375 3.02083 28.1458 3.54167 27.6875 4C27.2708 4.41667 26.75 4.625 26.125 4.625H11.3125L9.625 15.4375Z" fill="#140C0C" fill-opacity="0.45" shape-rendering="crispEdges"/>
<path d="M9.625 15.4375C12.2083 14.0208 15.1042 13.3333 18.3125 13.375C22.1042 13.375 25.0625 14.4583 27.1875 16.625C29.1875 18.7083 30.2083 21.4792 30.25 24.9375C30.25 30.3542 27.6667 33.9167 22.5 35.625C20.75 36.2083 18.6667 36.5 16.25 36.5C12.0833 36.5 8.4375 35.5208 5.3125 33.5625C4.64583 33.1458 4.3125 32.6042 4.3125 31.9375C4.3125 31.2292 4.47917 30.6458 4.8125 30.1875C5.1875 29.7292 5.625 29.5 6.125 29.5C6.625 29.5 7.22917 29.6875 7.9375 30.0625C10.3125 31.3125 12.875 31.9167 15.625 31.875C20.5 31.875 23.5833 30.625 24.875 28.125C25.3333 27.2083 25.5833 26.0625 25.625 24.6875C25.625 22.6042 24.9167 20.9375 23.5 19.6875C22.0833 18.4375 20.3125 17.8125 18.1875 17.8125C15.0208 17.8125 12.2083 18.5625 9.75 20.0625C9 20.4792 8.27083 20.6875 7.5625 20.6875C6.89583 20.6458 6.22917 20.375 5.5625 19.875C4.9375 19.3333 4.625 18.5833 4.625 17.625C4.625 17.1667 4.64583 16.7708 4.6875 16.4375L7 2.8125C7.08333 2.02083 7.375 1.39583 7.875 0.9375C8.375 0.479167 8.97917 0.25 9.6875 0.25H26.125C26.7083 0.25 27.2292 0.479167 27.6875 0.9375C28.1458 1.35417 28.375 1.85417 28.375 2.4375C28.375 3.02083 28.1458 3.54167 27.6875 4C27.2708 4.41667 26.75 4.625 26.125 4.625H11.3125L9.625 15.4375Z" fill="#140C0C" fill-opacity="0.45" shape-rendering="crispEdges"/>
</g>
<defs>
<filter id="filter0_d_1_57" x="0.3125" y="0.25" width="33.9375" height="44.25" filterUnits="userSpaceOnUse" color-interpolation-filters="sRGB">
<feFlood flood-opacity="0" result="BackgroundImageFix"/>
<feColorMatrix in="SourceAlpha" type="matrix" values="0 0 0 0 0 0 0 0 0 0 0 0 0 0 0 0 0 0 127 0" result="hardAlpha"/>
<feOffset dy="4"/>
<feGaussianBlur stdDeviation="2"/>
<feComposite in2="hardAlpha" operator="out"/>
<feColorMatrix type="matrix" values="0 0 0 0 0 0 0 0 0 0 0 0 0 0 0 0 0 0 0.25 0"/>
<feBlend mode="normal" in2="BackgroundImageFix" result="effect1_dropShadow_1_57"/>
<feBlend mode="normal" in="SourceGraphic" in2="effect1_dropShadow_1_57" result="shape"/>
</filter>
</defs>
</svg>
