<svg width="35" height="46" viewBox="0 0 35 46" fill="none" xmlns="http://www.w3.org/2000/svg">
<g filter="url(#filter0_d_1_58)">
<path d="M15.25 14.25C16.3333 14 17.6667 13.875 19.25 13.875C20.8333 13.875 22.3333 14.1667 23.75 14.75C25.1667 15.2917 26.375 16.0833 27.375 17.125C29.5833 19.375 30.6875 22.2917 30.6875 25.875C30.6875 29.1667 29.5625 31.9167 27.3125 34.125C24.9792 36.375 21.8958 37.5 18.0625 37.5C14.1458 37.5 11.0625 36.4583 8.8125 34.375C6.10417 31.7917 4.54167 27.9792 4.125 22.9375C4.04167 21.5625 4 20.1042 4 18.5625C4 16.9792 4.25 15.1042 4.75 12.9375C5.25 10.7292 6.0625 8.75 7.1875 7C8.35417 5.20833 9.875 3.72917 11.75 2.5625C13.6667 1.35417 15.875 0.75 18.375 0.75C20.875 0.75 22.8333 0.979167 24.25 1.4375C25.6667 1.89583 26.8958 2.39583 27.9375 2.9375C28.6875 3.35417 29.0417 3.91667 29 4.625C29 5.29167 28.8125 5.83333 28.4375 6.25C28.0625 6.66667 27.625 6.875 27.125 6.875C26.625 6.875 26.125 6.75 25.625 6.5C23.7917 5.66667 21.7083 5.25 19.375 5.25C17.0417 5.25 15.1875 5.72917 13.8125 6.6875C12.4792 7.60417 11.4167 8.72917 10.625 10.0625C9.375 12.3125 8.66667 15.0833 8.5 18.375C10 16.375 12.25 15 15.25 14.25ZM14 32.375C15.125 32.875 16.3958 33.125 17.8125 33.125C19.2292 33.125 20.4167 32.9375 21.375 32.5625C22.375 32.1875 23.2083 31.6458 23.875 30.9375C25.2917 29.5208 26 27.75 26 25.625C26.0417 23.4583 25.4167 21.6667 24.125 20.25C22.875 18.8333 20.9583 18.125 18.375 18.125C15.7083 18.125 13.5 18.7917 11.75 20.125C10.5 21.0417 9.5 22.25 8.75 23.75C9.33333 28.1667 11.0833 31.0417 14 32.375Z" fill="#140C0C" fill-opacity="0.45" shape-rendering="crispEdges"/>
<path d="M15.25 14.25C16.3333 14 17.6667 13.875 19.25 13.875C20.8333 13.875 22.3333 14.1667 23.75 14.75C25.1667 15.2917 26.375 16.0833 27.375 17.125C29.5833 19.375 30.6875 22.2917 30.6875 25.875C30.6875 29.1667 29.5625 31.9167 27.3125 34.125C24.9792 36.375 21.8958 37.5 18.0625 37.5C14.1458 37.5 11.0625 36.4583 8.8125 34.375C6.10417 31.7917 4.54167 27.9792 4.125 22.9375C4.04167 21.5625 4 20.1042 4 18.5625C4 16.9792 4.25 15.1042 4.75 12.9375C5.25 10.7292 6.0625 8.75 7.1875 7C8.35417 5.20833 9.875 3.72917 11.75 2.5625C13.6667 1.35417 15.875 0.75 18.375 0.75C20.875 0.75 22.8333 0.979167 24.25 1.4375C25.6667 1.89583 26.8958 2.39583 27.9375 2.9375C28.6875 3.35417 29.0417 3.91667 29 4.625C29 5.29167 28.8125 5.83333 28.4375 6.25C28.0625 6.66667 27.625 6.875 27.125 6.875C26.625 6.875 26.125 6.75 25.625 6.5C23.7917 5.66667 21.7083 5.25 19.375 5.25C17.0417 5.25 15.1875 5.72917 13.8125 6.6875C12.4792 7.60417 11.4167 8.72917 10.625 10.0625C9.375 12.3125 8.66667 15.0833 8.5 18.375C10 16.375 12.25 15 15.25 14.25ZM14 32.375C15.125 32.875 16.3958 33.125 17.8125 33.125C19.2292 33.125 20.4167 32.9375 21.375 32.5625C22.375 32.1875 23.2083 31.6458 23.875 30.9375C25.2917 29.5208 26 27.75 26 25.625C26.0417 23.4583 25.4167 21.6667 24.125 20.25C22.875 18.8333 20.9583 18.125 18.375 18.125C15.7083 18.125 13.5 18.7917 11.75 20.125C10.5 21.0417 9.5 22.25 8.75 23.75C9.33333 28.1667 11.0833 31.0417 14 32.375Z" fill="#140C0C" fill-opacity="0.45" shape-rendering="crispEdges"/>
</g>
<defs>
<filter id="filter0_d_1_58" x="0" y="0.75" width="34.6875" height="44.75" filterUnits="userSpaceOnUse" color-interpolation-filters="sRGB">
<feFlood flood-opacity="0" result="BackgroundImageFix"/>
<feColorMatrix in="SourceAlpha" type="matrix" values="0 0 0 0 0 0 0 0 0 0 0 0 0 0 0 0 0 0 127 0" result="hardAlpha"/>
<feOffset dy="4"/>
<feGaussianBlur stdDeviation="2"/>
<feComposite in2="hardAlpha" operator="out"/>
<feColorMatrix type="matrix" values="0 0 0 0 0 0 0 0 0 0 0 0 0 0 0 0 0 0 0.25 0"/>
<feBlend mode="normal" in2="BackgroundImageFix" result="effect1_dropShadow_1_58"/>
<feBlend mode="normal" in="SourceGraphic" in2="effect1_dropShadow_1_58" result="shape"/>
</filter>
</defs>
</svg>
