<svg width="36" height="46" viewBox="0 0 36 46" fill="none" xmlns="http://www.w3.org/2000/svg">
<g filter="url(#filter0_d_1_60)">
<path d="M30.0625 10.125C30.0625 11.1667 29.8958 12.1042 29.5625 12.9375C29.2708 13.7292 28.8333 14.4583 28.25 15.125C27.2083 16.3333 25.8333 17.25 24.125 17.875C26.4167 18.6667 28.25 19.8333 29.625 21.375C31.0417 22.875 31.75 24.9375 31.75 27.5625C31.75 30.2708 30.75 32.5 28.75 34.25C26.2917 36.4583 22.75 37.5417 18.125 37.5C13.5 37.5 9.9375 36.4167 7.4375 34.25C5.4375 32.5 4.41667 30.2917 4.375 27.625C4.375 24.9583 5.08333 22.875 6.5 21.375C7.91667 19.8333 9.77083 18.6667 12.0625 17.875C9.3125 16.9167 7.5 15.2708 6.625 12.9375C6.29167 12.0625 6.125 11.125 6.125 10.125C6.125 9.125 6.3125 8.08333 6.6875 7C7.10417 5.875 7.79167 4.83333 8.75 3.875C10.9167 1.79167 14.0417 0.75 18.125 0.75C22.2083 0.75 25.2917 1.79167 27.375 3.875C29.1667 5.625 30.0625 7.70833 30.0625 10.125ZM18.125 33.375C21.2083 33.375 23.5417 32.6042 25.125 31.0625C26.4167 29.8542 27.0625 28.6042 27.0625 27.3125C27.1042 25.9792 26.875 24.875 26.375 24C25.875 23.125 25.1875 22.4167 24.3125 21.875C22.6875 20.7083 20.625 20.125 18.125 20.125C15.625 20.125 13.5417 20.7083 11.875 21.875C10.0417 23.125 9.10417 24.8333 9.0625 27C9.0625 28.5 9.70833 29.8542 11 31.0625C12.6667 32.6042 15.0417 33.375 18.125 33.375ZM18.125 15.875C20.6667 15.875 22.5625 15.25 23.8125 14C24.8958 12.9583 25.4167 11.7292 25.375 10.3125C25.375 8.85417 24.7708 7.58333 23.5625 6.5C22.3958 5.41667 20.5833 4.875 18.125 4.875C15.625 4.875 13.7708 5.41667 12.5625 6.5C11.3542 7.58333 10.75 8.85417 10.75 10.3125C10.75 11.7708 11.3333 13.0625 12.5 14.1875C13.7083 15.3125 15.5833 15.875 18.125 15.875Z" fill="#140C0C" fill-opacity="0.45" shape-rendering="crispEdges"/>
<path d="M30.0625 10.125C30.0625 11.1667 29.8958 12.1042 29.5625 12.9375C29.2708 13.7292 28.8333 14.4583 28.25 15.125C27.2083 16.3333 25.8333 17.25 24.125 17.875C26.4167 18.6667 28.25 19.8333 29.625 21.375C31.0417 22.875 31.75 24.9375 31.75 27.5625C31.75 30.2708 30.75 32.5 28.75 34.25C26.2917 36.4583 22.75 37.5417 18.125 37.5C13.5 37.5 9.9375 36.4167 7.4375 34.25C5.4375 32.5 4.41667 30.2917 4.375 27.625C4.375 24.9583 5.08333 22.875 6.5 21.375C7.91667 19.8333 9.77083 18.6667 12.0625 17.875C9.3125 16.9167 7.5 15.2708 6.625 12.9375C6.29167 12.0625 6.125 11.125 6.125 10.125C6.125 9.125 6.3125 8.08333 6.6875 7C7.10417 5.875 7.79167 4.83333 8.75 3.875C10.9167 1.79167 14.0417 0.75 18.125 0.75C22.2083 0.75 25.2917 1.79167 27.375 3.875C29.1667 5.625 30.0625 7.70833 30.0625 10.125ZM18.125 33.375C21.2083 33.375 23.5417 32.6042 25.125 31.0625C26.4167 29.8542 27.0625 28.6042 27.0625 27.3125C27.1042 25.9792 26.875 24.875 26.375 24C25.875 23.125 25.1875 22.4167 24.3125 21.875C22.6875 20.7083 20.625 20.125 18.125 20.125C15.625 20.125 13.5417 20.7083 11.875 21.875C10.0417 23.125 9.10417 24.8333 9.0625 27C9.0625 28.5 9.70833 29.8542 11 31.0625C12.6667 32.6042 15.0417 33.375 18.125 33.375ZM18.125 15.875C20.6667 15.875 22.5625 15.25 23.8125 14C24.8958 12.9583 25.4167 11.7292 25.375 10.3125C25.375 8.85417 24.7708 7.58333 23.5625 6.5C22.3958 5.41667 20.5833 4.875 18.125 4.875C15.625 4.875 13.7708 5.41667 12.5625 6.5C11.3542 7.58333 10.75 8.85417 10.75 10.3125C10.75 11.7708 11.3333 13.0625 12.5 14.1875C13.7083 15.3125 15.5833 15.875 18.125 15.875Z" fill="#140C0C" fill-opacity="0.45" shape-rendering="crispEdges"/>
</g>
<defs>
<filter id="filter0_d_1_60" x="0.375" y="0.75" width="35.375" height="44.8125" filterUnits="userSpaceOnUse" color-interpolation-filters="sRGB">
<feFlood flood-opacity="0" result="BackgroundImageFix"/>
<feColorMatrix in="SourceAlpha" type="matrix" values="0 0 0 0 0 0 0 0 0 0 0 0 0 0 0 0 0 0 127 0" result="hardAlpha"/>
<feOffset dy="4"/>
<feGaussianBlur stdDeviation="2"/>
<feComposite in2="hardAlpha" operator="out"/>
<feColorMatrix type="matrix" values="0 0 0 0 0 0 0 0 0 0 0 0 0 0 0 0 0 0 0.25 0"/>
<feBlend mode="normal" in2="BackgroundImageFix" result="effect1_dropShadow_1_60"/>
<feBlend mode="normal" in="SourceGraphic" in2="effect1_dropShadow_1_60" result="shape"/>
</filter>
</defs>
</svg>
