<svg width="36" height="46" viewBox="0 0 36 46" fill="none" xmlns="http://www.w3.org/2000/svg">
<g filter="url(#filter0_d_1_61)">
<path d="M19.875 24C18.7917 24.25 17.4583 24.375 15.875 24.375C14.3333 24.375 12.8333 24.1042 11.375 23.5625C9.95833 22.9792 8.75 22.1667 7.75 21.125C5.54167 18.875 4.4375 15.9583 4.4375 12.375C4.4375 9.04167 5.58333 6.29167 7.875 4.125C10.2917 1.875 13.375 0.75 17.125 0.75C21.0417 0.75 24.125 1.79167 26.375 3.875C29.0833 6.45833 30.625 10.2708 31 15.3125C31.0833 16.6875 31.125 18.1667 31.125 19.75C31.125 21.3333 30.875 23.2083 30.375 25.375C29.875 27.5417 29.0417 29.5208 27.875 31.3125C26.75 33.1042 25.2292 34.5833 23.3125 35.75C21.4375 36.9167 19.25 37.5 16.75 37.5C14.2917 37.5 12.3333 37.2708 10.875 36.8125C9.45833 36.3542 8.22917 35.8542 7.1875 35.3125C6.4375 34.8958 6.0625 34.3542 6.0625 33.6875C6.10417 32.9792 6.3125 32.4167 6.6875 32C7.0625 31.5833 7.47917 31.375 7.9375 31.375C8.4375 31.375 9 31.5208 9.625 31.8125C11.5417 32.6458 13.6042 33.0625 15.8125 33.0625C18.0625 33.0208 19.875 32.5417 21.25 31.625C22.6667 30.6667 23.7708 29.5208 24.5625 28.1875C25.8125 25.9375 26.5208 23.1667 26.6875 19.875C25.1458 21.875 22.875 23.25 19.875 24ZM21.125 5.875C20 5.375 18.7292 5.125 17.3125 5.125C15.8958 5.125 14.7083 5.33333 13.75 5.75C12.7917 6.125 11.9583 6.64583 11.25 7.3125C9.83333 8.72917 9.125 10.5208 9.125 12.6875C9.125 14.8125 9.75 16.5833 11 18C12.25 19.4167 14.1667 20.125 16.75 20.125C19.4167 20.125 21.625 19.4583 23.375 18.125C24.625 17.2083 25.625 16 26.375 14.5C25.7917 10.0833 24.0417 7.20833 21.125 5.875Z" fill="#140C0C" fill-opacity="0.45" shape-rendering="crispEdges"/>
<path d="M19.875 24C18.7917 24.25 17.4583 24.375 15.875 24.375C14.3333 24.375 12.8333 24.1042 11.375 23.5625C9.95833 22.9792 8.75 22.1667 7.75 21.125C5.54167 18.875 4.4375 15.9583 4.4375 12.375C4.4375 9.04167 5.58333 6.29167 7.875 4.125C10.2917 1.875 13.375 0.75 17.125 0.75C21.0417 0.75 24.125 1.79167 26.375 3.875C29.0833 6.45833 30.625 10.2708 31 15.3125C31.0833 16.6875 31.125 18.1667 31.125 19.75C31.125 21.3333 30.875 23.2083 30.375 25.375C29.875 27.5417 29.0417 29.5208 27.875 31.3125C26.75 33.1042 25.2292 34.5833 23.3125 35.75C21.4375 36.9167 19.25 37.5 16.75 37.5C14.2917 37.5 12.3333 37.2708 10.875 36.8125C9.45833 36.3542 8.22917 35.8542 7.1875 35.3125C6.4375 34.8958 6.0625 34.3542 6.0625 33.6875C6.10417 32.9792 6.3125 32.4167 6.6875 32C7.0625 31.5833 7.47917 31.375 7.9375 31.375C8.4375 31.375 9 31.5208 9.625 31.8125C11.5417 32.6458 13.6042 33.0625 15.8125 33.0625C18.0625 33.0208 19.875 32.5417 21.25 31.625C22.6667 30.6667 23.7708 29.5208 24.5625 28.1875C25.8125 25.9375 26.5208 23.1667 26.6875 19.875C25.1458 21.875 22.875 23.25 19.875 24ZM21.125 5.875C20 5.375 18.7292 5.125 17.3125 5.125C15.8958 5.125 14.7083 5.33333 13.75 5.75C12.7917 6.125 11.9583 6.64583 11.25 7.3125C9.83333 8.72917 9.125 10.5208 9.125 12.6875C9.125 14.8125 9.75 16.5833 11 18C12.25 19.4167 14.1667 20.125 16.75 20.125C19.4167 20.125 21.625 19.4583 23.375 18.125C24.625 17.2083 25.625 16 26.375 14.5C25.7917 10.0833 24.0417 7.20833 21.125 5.875Z" fill="#140C0C" fill-opacity="0.45" shape-rendering="crispEdges"/>
</g>
<defs>
<filter id="filter0_d_1_61" x="0.4375" y="0.75" width="34.6875" height="44.75" filterUnits="userSpaceOnUse" color-interpolation-filters="sRGB">
<feFlood flood-opacity="0" result="BackgroundImageFix"/>
<feColorMatrix in="SourceAlpha" type="matrix" values="0 0 0 0 0 0 0 0 0 0 0 0 0 0 0 0 0 0 127 0" result="hardAlpha"/>
<feOffset dy="4"/>
<feGaussianBlur stdDeviation="2"/>
<feComposite in2="hardAlpha" operator="out"/>
<feColorMatrix type="matrix" values="0 0 0 0 0 0 0 0 0 0 0 0 0 0 0 0 0 0 0.25 0"/>
<feBlend mode="normal" in2="BackgroundImageFix" result="effect1_dropShadow_1_61"/>
<feBlend mode="normal" in="SourceGraphic" in2="effect1_dropShadow_1_61" result="shape"/>
</filter>
</defs>
</svg>
