<svg width="79" height="91" viewBox="0 0 79 91" fill="none" xmlns="http://www.w3.org/2000/svg">
<g filter="url(#filter0_d_3_94)">
<circle cx="39.5" cy="47.5" r="35.5" fill="#745D5D"/>
</g>
<path d="M38.5938 58.7031C38.7188 59.0156 38.7812 59.3438 38.7812 59.6875C38.7812 60 38.625 60.3281 38.3125 60.6719C38.0312 61.0156 37.5469 61.1875 36.8594 61.1875C36.2031 61.1875 35.7188 60.8281 35.4062 60.1094L32.9219 54.1562H19.8438L17.4062 60.1094C17.0938 60.8281 16.5938 61.1875 15.9062 61.1875C15.25 61.1875 14.7656 61.0156 14.4531 60.6719C14.1719 60.3281 14.0312 60 14.0312 59.6875C14.0312 59.3438 14.0938 59.0156 14.2188 58.7031L23.9688 35.5938C24.4062 34.5312 25.1562 34 26.2188 34H26.5938C27.625 34 28.375 34.5312 28.8438 35.5938L38.5938 58.7031ZM31.6094 50.9688L26.4062 38.4531L21.2031 50.9688H31.6094ZM64.6075 56.2188C64.795 56.125 65.0763 56.0781 65.4513 56.0781C65.8263 56.0781 66.1544 56.2344 66.4356 56.5469C66.7169 56.8281 66.8575 57.1562 66.8575 57.5312C66.8575 58.2188 66.5606 58.7188 65.9669 59.0312C64.7794 59.7188 63.4981 60.2812 62.1231 60.7188C60.7794 61.1562 59.1388 61.375 57.2013 61.375C55.295 61.375 53.5138 61.0625 51.8575 60.4375C50.2325 59.8125 48.8263 58.9062 47.6388 57.7188C45.0763 55.2188 43.795 51.8438 43.795 47.5938C43.795 43.375 45.0763 40 47.6388 37.4688C50.1075 35.0312 53.3106 33.8125 57.2481 33.8125C59.1544 33.8125 60.7794 34.0469 62.1231 34.5156C63.4981 34.9844 64.545 35.4219 65.2638 35.8281C65.9825 36.2031 66.42 36.5156 66.5763 36.7656C66.7638 36.9844 66.8575 37.2812 66.8575 37.6562C66.8575 38.0312 66.7169 38.375 66.4356 38.6875C66.1544 38.9688 65.8263 39.1094 65.4513 39.1094C65.1075 39.1094 64.8263 39.0625 64.6075 38.9688C63.5763 38.4062 62.5138 37.9688 61.42 37.6562C60.3575 37.3125 59.0294 37.1406 57.4356 37.1406C55.8419 37.1406 54.3888 37.4219 53.0763 37.9844C51.795 38.5156 50.7169 39.25 49.8419 40.1875C48.1231 42.0625 47.2794 44.5312 47.3106 47.5938C47.3106 50.6562 48.1544 53.125 49.8419 55C51.7169 57.0312 54.295 58.0469 57.5763 58.0469C59.0763 58.0469 60.3575 57.8906 61.42 57.5781C62.5138 57.2344 63.5763 56.7812 64.6075 56.2188Z" fill="white"/>
<defs>
<filter id="filter0_d_3_94" x="0" y="12" width="79" height="79" filterUnits="userSpaceOnUse" color-interpolation-filters="sRGB">
<feFlood flood-opacity="0" result="BackgroundImageFix"/>
<feColorMatrix in="SourceAlpha" type="matrix" values="0 0 0 0 0 0 0 0 0 0 0 0 0 0 0 0 0 0 127 0" result="hardAlpha"/>
<feOffset dy="4"/>
<feGaussianBlur stdDeviation="2"/>
<feComposite in2="hardAlpha" operator="out"/>
<feColorMatrix type="matrix" values="0 0 0 0 0 0 0 0 0 0 0 0 0 0 0 0 0 0 0.25 0"/>
<feBlend mode="normal" in2="BackgroundImageFix" result="effect1_dropShadow_3_94"/>
<feBlend mode="normal" in="SourceGraphic" in2="effect1_dropShadow_3_94" result="shape"/>
</filter>
</defs>
</svg>
