<svg width="95" height="81" viewBox="0 0 95 81" fill="none" xmlns="http://www.w3.org/2000/svg">
<g filter="url(#filter0_d_118_4)">
<circle cx="39.5" cy="37.5" r="35.5" fill="#745D5D"/>
</g>
<path d="M22.9766 28.6562C26.5443 28.6562 29.3828 29.8542 31.4922 32.25C32.4297 33.2917 33.1198 34.4766 33.5625 35.8047C34.0312 37.1328 34.2656 38.474 34.2656 39.8281C34.2656 41.1823 34.0312 42.5234 33.5625 43.8516C33.1198 45.1797 32.4297 46.3646 31.4922 47.4062C29.3828 49.8021 26.5443 51 22.9766 51H16.5312C16.1406 51 15.8021 50.8568 15.5156 50.5703C15.2292 50.2839 15.0859 49.9453 15.0859 49.5547V30.1406C15.0859 29.75 15.2292 29.4115 15.5156 29.125C15.8021 28.8125 16.1406 28.6562 16.5312 28.6562H22.9766ZM22.625 48.2656C25.2812 48.2656 27.4167 47.4844 29.0312 45.9219C30.6198 44.3594 31.4141 42.3281 31.4141 39.8281C31.4141 37.3281 30.6198 35.2969 29.0312 33.7344C27.4167 32.1719 25.2812 31.3906 22.625 31.3906H18.0156V48.2656H22.625ZM41.6766 43.8906C41.8589 45.3229 42.4057 46.4688 43.3172 47.3281C44.2547 48.1615 45.5307 48.5781 47.1453 48.5781C48.7859 48.5781 50.1792 48.3177 51.325 47.7969C51.6896 47.6146 52.0151 47.5234 52.3016 47.5234C52.588 47.4974 52.8484 47.6016 53.0828 47.8359C53.3432 48.0703 53.4734 48.3307 53.4734 48.6172C53.4734 49.1901 53.2391 49.5938 52.7703 49.8281C52.3276 50.0625 51.924 50.2708 51.5594 50.4531C51.1948 50.6354 50.8042 50.7917 50.3875 50.9219C49.424 51.1823 48.3042 51.3125 47.0281 51.3125C44.3979 51.3125 42.3536 50.5833 40.8953 49.125C39.463 47.6406 38.7469 45.5443 38.7469 42.8359C38.7469 40.4922 39.3589 38.5391 40.5828 36.9766C41.963 35.2318 43.9031 34.3594 46.4031 34.3594C48.799 34.3594 50.687 35.1667 52.0672 36.7812C53.3693 38.2917 54.0203 40.1797 54.0203 42.4453C54.0203 42.8359 53.8771 43.1745 53.5906 43.4609C53.3302 43.7474 52.9917 43.8906 52.575 43.8906H41.6766ZM46.4031 36.8203C44.5021 36.8203 43.1219 37.6667 42.2625 39.3594C41.95 39.9583 41.7547 40.6745 41.6766 41.5078H51.1297C51.0516 39.9974 50.4917 38.7995 49.45 37.9141C48.6167 37.1849 47.601 36.8203 46.4031 36.8203ZM59.3609 28.9297C59.3609 28.513 59.5042 28.1745 59.7906 27.9141C60.0771 27.6276 60.4286 27.4844 60.8453 27.4844C61.262 27.4844 61.6005 27.6276 61.8609 27.9141C62.1474 28.1745 62.2906 28.513 62.2906 28.9297V49.7109C62.2906 50.1016 62.1474 50.4401 61.8609 50.7266C61.6005 51.013 61.262 51.1562 60.8453 51.1562C60.4286 51.1562 60.0771 51.013 59.7906 50.7266C59.5042 50.4401 59.3609 50.1016 59.3609 49.7109V28.9297Z" fill="white"/>
<defs>
<filter id="filter0_d_118_4" x="0" y="2" width="79" height="79" filterUnits="userSpaceOnUse" color-interpolation-filters="sRGB">
<feFlood flood-opacity="0" result="BackgroundImageFix"/>
<feColorMatrix in="SourceAlpha" type="matrix" values="0 0 0 0 0 0 0 0 0 0 0 0 0 0 0 0 0 0 127 0" result="hardAlpha"/>
<feOffset dy="4"/>
<feGaussianBlur stdDeviation="2"/>
<feComposite in2="hardAlpha" operator="out"/>
<feColorMatrix type="matrix" values="0 0 0 0 0 0 0 0 0 0 0 0 0 0 0 0 0 0 0.25 0"/>
<feBlend mode="normal" in2="BackgroundImageFix" result="effect1_dropShadow_118_4"/>
<feBlend mode="normal" in="SourceGraphic" in2="effect1_dropShadow_118_4" result="shape"/>
</filter>
</defs>
</svg>
