<svg width="86" height="98" viewBox="0 0 86 98" fill="none" xmlns="http://www.w3.org/2000/svg">
<g filter="url(#filter0_d_3_87)">
<circle cx="39.5" cy="54.5" r="35.5" fill="#745D5D"/>
</g>
<path d="M46.7656 65.8906C46.9479 66.125 47.0391 66.4245 47.0391 66.7891C47.0391 67.1276 46.9089 67.4401 46.6484 67.7266C46.388 68.013 46.0885 68.1562 45.75 68.1562C45.1771 68.1562 44.7344 67.9609 44.4219 67.5703L37.5859 58.9375L30.8281 67.6094C30.5156 67.974 30.1641 68.1562 29.7734 68.1562C29.3828 68.1562 29.0443 68.026 28.7578 67.7656C28.4974 67.5052 28.3672 67.2057 28.3672 66.8672C28.3672 66.5026 28.4583 66.1771 28.6406 65.8906L36.0625 56.8281L28.7188 47.8047C28.5365 47.5443 28.4453 47.2318 28.4453 46.8672C28.4453 46.5026 28.5755 46.1901 28.8359 45.9297C29.1224 45.6432 29.487 45.5 29.9297 45.5C30.3984 45.5 30.763 45.6953 31.0234 46.0859L37.7812 54.6406L44.5391 46.0469C44.7734 45.7083 45.099 45.5391 45.5156 45.5391C45.9323 45.513 46.2839 45.6432 46.5703 45.9297C46.8568 46.1901 47 46.4896 47 46.8281C47 47.1406 46.9219 47.4271 46.7656 47.6875L39.3438 56.8281L46.7656 65.8906Z" fill="white"/>
<path d="M62.1328 48.2656C62.5234 48.2656 62.849 48.4089 63.1094 48.6953C63.3698 48.9557 63.5 49.2812 63.5 49.6719C63.5 50.0365 63.3698 50.349 63.1094 50.6094C62.849 50.8698 62.5234 51 62.1328 51H49.7891C49.2943 51 48.8906 50.8438 48.5781 50.5312C48.2656 50.2188 48.1094 49.8281 48.1094 49.3594C48.1094 48.2396 48.4219 47.224 49.0469 46.3125C49.6719 45.401 50.4531 44.5677 51.3906 43.8125C52.3281 43.0312 53.3568 42.3021 54.4766 41.625C55.5964 40.9479 56.625 40.2708 57.5625 39.5938C58.526 38.9167 59.3203 38.2135 59.9453 37.4844C60.5703 36.7552 60.8828 36.026 60.8828 35.2969C60.8828 34.5677 60.7917 33.9688 60.6094 33.5C60.4271 33.0052 60.1406 32.5885 59.75 32.25C58.8906 31.4688 57.5755 31.0781 55.8047 31.0781C53.9036 31.0781 52.0807 31.4688 50.3359 32.25C50.1276 32.3542 49.8802 32.4062 49.5938 32.4062C49.3333 32.4062 49.0859 32.2891 48.8516 32.0547C48.6432 31.8203 48.5391 31.4818 48.5391 31.0391C48.5391 30.5964 48.7604 30.2448 49.2031 29.9844C51.3646 28.8906 53.7474 28.3438 56.3516 28.3438C58.4349 28.3438 60.1667 28.9427 61.5469 30.1406C62.9792 31.3385 63.6953 32.901 63.6953 34.8281C63.6953 36.7552 62.7188 38.6302 60.7656 40.4531C59.9062 41.2344 58.9688 41.9635 57.9531 42.6406C56.9635 43.2917 56 43.9427 55.0625 44.5938C54.125 45.2188 53.2786 45.8307 52.5234 46.4297C51.7682 47.0286 51.2604 47.6406 51 48.2656H62.1328Z" fill="white"/>
<defs>
<filter id="filter0_d_3_87" x="0" y="19" width="79" height="79" filterUnits="userSpaceOnUse" color-interpolation-filters="sRGB">
<feFlood flood-opacity="0" result="BackgroundImageFix"/>
<feColorMatrix in="SourceAlpha" type="matrix" values="0 0 0 0 0 0 0 0 0 0 0 0 0 0 0 0 0 0 127 0" result="hardAlpha"/>
<feOffset dy="4"/>
<feGaussianBlur stdDeviation="2"/>
<feComposite in2="hardAlpha" operator="out"/>
<feColorMatrix type="matrix" values="0 0 0 0 0 0 0 0 0 0 0 0 0 0 0 0 0 0 0.25 0"/>
<feBlend mode="normal" in2="BackgroundImageFix" result="effect1_dropShadow_3_87"/>
<feBlend mode="normal" in="SourceGraphic" in2="effect1_dropShadow_3_87" result="shape"/>
</filter>
</defs>
</svg>
